<svg width="85" height="84" viewBox="0 0 85 84" fill="none" xmlns="http://www.w3.org/2000/svg">
<path fill-rule="evenodd" clip-rule="evenodd" d="M63.5877 59.4963C73.2632 59.4963 81.1068 52.2315 81.1068 43.2699C81.1068 34.3082 73.2632 27.0434 63.5877 27.0434C53.9122 27.0434 46.0686 34.3082 46.0686 43.2699C46.0686 52.2315 53.9122 59.4963 63.5877 59.4963ZM63.5877 63.1022C75.4134 63.1022 84.9999 54.223 84.9999 43.2699C84.9999 32.3168 75.4134 23.4375 63.5877 23.4375C51.7621 23.4375 42.1755 32.3168 42.1755 43.2699C42.1755 54.223 51.7621 63.1022 63.5877 63.1022Z" fill="#2183AA"/>
<path fill-rule="evenodd" clip-rule="evenodd" d="M53.206 57.6943C54.281 57.6943 55.1526 58.5015 55.1526 59.4973V79.7161L62.1206 74.4011C63.3773 73.4425 65.2065 73.495 66.3966 74.5239L72.0228 79.3875V59.4973C72.0228 58.5015 72.8943 57.6943 73.9693 57.6943C75.0444 57.6943 75.9159 58.5015 75.9159 59.4973V80.7705C75.9159 83.398 72.5318 84.76 70.458 82.9673L64.1563 77.5196L56.5661 83.3091C54.4496 84.9235 51.2594 83.5291 51.2594 80.9896V59.4973C51.2594 58.5015 52.1309 57.6943 53.206 57.6943Z" fill="#2183AA"/>
<path fill-rule="evenodd" clip-rule="evenodd" d="M0 3.0049C0 1.34534 1.45251 0 3.24427 0H62.9389C64.7307 0 66.1832 1.34534 66.1832 3.0049V24.6402C66.1832 25.6359 65.3117 26.4432 64.2366 26.4432C63.1616 26.4432 62.2901 25.6359 62.2901 24.6402V3.60588H3.89313V64.3049H51.9084C52.9835 64.3049 53.855 65.1121 53.855 66.1079C53.855 67.1036 52.9835 67.9108 51.9084 67.9108H3.24427C1.45251 67.9108 0 66.5655 0 64.9059V3.0049ZM13.626 15.6255C13.626 14.6298 14.4975 13.8226 15.5725 13.8226H49.9618C51.0369 13.8226 51.9084 14.6298 51.9084 15.6255C51.9084 16.6212 51.0369 17.4284 49.9618 17.4284H15.5725C14.4975 17.4284 13.626 16.6212 13.626 15.6255ZM13.626 32.453C13.626 31.4572 14.4975 30.65 15.5725 30.65H47.3664C48.4415 30.65 49.313 31.4572 49.313 32.453C49.313 33.4487 48.4415 34.2559 47.3664 34.2559H15.5725C14.4975 34.2559 13.626 33.4487 13.626 32.453ZM13.626 51.0834C13.626 50.0876 14.4975 49.2804 15.5725 49.2804H45.4198C46.4949 49.2804 47.3664 50.0876 47.3664 51.0834C47.3664 52.0791 46.4949 52.8863 45.4198 52.8863H15.5725C14.4975 52.8863 13.626 52.0791 13.626 51.0834Z" fill="#2183AA"/>
</svg>
